<svg xmlns="http://www.w3.org/2000/svg" version="1.1" viewBox="10 10 140 140" width="140" height="140" class="excalidraw-svg" data-color-variable="--icon-color" style="color: var(--icon-color, #000000);" fill="none"><metadata>Derived hand-drawn master. Original file: Knowledge/Assets/Icons/filter-alt-material-symbol.svg. Title: Filter · Material Symbol. Source: [filter_alt · Google Material Symbols](https://github.com/google/material-design-icons/blob/master/symbols/web/filter_alt/materialsymbolsoutlined/filter_alt_24px.svg). Author: Google · Material Symbols. License: [Apache License 2.0](https://www.apache.org/licenses/LICENSE-2.0). Attribution index: Knowledge/Maps/Icon 索引.md.</metadata><!-- svg-source:excalidraw --><metadata/><defs><style class="style-fonts">
      </style></defs><g stroke-linecap="round"><g transform="translate(74.16666666666667 126.66666666666667) rotate(0 5.833355081362633 -47.3375918342111)"><path d="M0 0 C0 0, 0 0, 0 0 M0 0 C0 0, 0 0, 0 0 M-0.06 0.03 C-0.23 0.12, -0.37 -0.09, -0.62 0.01 M0.06 0.04 C-0.26 -0.04, -0.45 -0.05, -0.55 0.02 M-0.6 -0.03 C-0.95 0, -1.13 -0.15, -1.13 -0.2 M-0.58 -0.07 C-0.81 -0.02, -0.93 -0.04, -1.14 -0.16 M-1.08 0 C-1.22 -0.21, -1.37 -0.2, -1.81 -0.21 M-1.19 -0.07 C-1.36 -0.12, -1.5 -0.19, -1.75 -0.22 M-1.74 -0.29 C-1.88 -0.38, -2.16 -0.26, -2.26 -0.5 M-1.75 -0.25 C-1.92 -0.26, -2.08 -0.37, -2.31 -0.41 M-2.32 -0.45 C-2.44 -0.39, -2.54 -0.51, -2.69 -0.55 M-2.28 -0.39 C-2.43 -0.55, -2.65 -0.65, -2.83 -0.62 M-2.86 -0.74 C-2.86 -0.66, -3.21 -0.94, -3.26 -0.9 M-2.77 -0.66 C-3 -0.76, -3.1 -0.83, -3.25 -0.89 M-3.23 -0.95 C-3.35 -0.99, -3.58 -1.22, -3.73 -1.32 M-3.21 -0.89 C-3.35 -1.07, -3.45 -1.08, -3.67 -1.26 M-3.77 -1.35 C-3.99 -1.39, -4.01 -1.49, -4.24 -1.65 M-3.67 -1.29 C-3.88 -1.37, -3.97 -1.58, -4.12 -1.62 M-4.15 -1.65 C-4.21 -1.92, -4.4 -2.03, -4.44 -2.05 M-4.19 -1.68 C-4.33 -1.83, -4.37 -1.96, -4.49 -2.05 M-4.66 -2.21 C-4.6 -2.23, -4.81 -2.33, -4.96 -2.46 M-4.5 -2.13 C-4.6 -2.25, -4.77 -2.34, -4.85 -2.57 M-4.85 -2.58 C-4.93 -2.69, -5.02 -2.84, -5.24 -3.12 M-4.85 -2.62 C-5.02 -2.72, -5.05 -2.86, -5.2 -3.02 M-5.29 -3.13 C-5.33 -3.16, -5.27 -3.42, -5.41 -3.56 M-5.21 -3.01 C-5.26 -3.14, -5.27 -3.35, -5.37 -3.53 M-5.32 -3.61 C-5.55 -3.73, -5.49 -3.98, -5.69 -4.2 M-5.43 -3.51 C-5.46 -3.68, -5.5 -3.86, -5.57 -4.08 M-5.67 -4.09 C-5.58 -4.21, -5.74 -4.4, -5.78 -4.72 M-5.64 -4.06 C-5.63 -4.28, -5.64 -4.36, -5.76 -4.59 M-5.77 -4.63 C-5.71 -4.8, -5.76 -4.93, -5.89 -5.18 M-5.7 -4.68 C-5.78 -4.85, -5.75 -5, -5.83 -5.26 M-5.91 -5.11 C-5.71 -5.39, -5.91 -5.53, -5.82 -5.77 M-5.83 -5.19 C-5.87 -5.47, -5.85 -5.58, -5.84 -5.81 M-9.41 -5.34 C-8.23 -19.53, -2.24 -32.41, -8.1 -44.15 M-7.1 -5.94 C-4.96 -20.32, -5.46 -31.77, -4.27 -41.74 M-6.6 -44.32 C-15.7 -53.34, -25.56 -64.98, -36.48 -87 M-7.65 -41.52 C-16.61 -51.7, -23.31 -63.57, -39.58 -84.39 M-39.67 -84 C-39.67 -84, -39.67 -84, -39.67 -84 M-39.67 -84 C-39.67 -84, -39.67 -84, -39.67 -84 M-39.65 -84.08 C-39.65 -84.12, -39.73 -84.24, -39.88 -84.3 M-39.64 -84.04 C-39.77 -84.17, -39.86 -84.27, -39.95 -84.41 M-39.98 -84.42 C-39.94 -84.46, -40 -84.48, -40.24 -84.69 M-39.91 -84.39 C-39.97 -84.45, -40.02 -84.56, -40.17 -84.72 M-40.22 -84.69 C-40.22 -84.87, -40.3 -84.97, -40.29 -85.04 M-40.14 -84.76 C-40.22 -84.87, -40.29 -85.05, -40.4 -85.11 M-40.3 -85.13 C-40.39 -85.21, -40.42 -85.32, -40.51 -85.47 M-40.32 -85.12 C-40.42 -85.2, -40.49 -85.36, -40.5 -85.45 M-40.57 -85.55 C-40.6 -85.57, -40.66 -85.74, -40.72 -85.83 M-40.54 -85.5 C-40.61 -85.56, -40.61 -85.71, -40.7 -85.83 M-40.72 -85.9 C-40.79 -85.93, -40.73 -86.07, -40.74 -86.29 M-40.64 -85.84 C-40.7 -85.92, -40.73 -86.08, -40.79 -86.2 M-40.82 -86.3 C-40.79 -86.38, -40.81 -86.42, -40.83 -86.55 M-40.76 -86.25 C-40.78 -86.29, -40.87 -86.39, -40.88 -86.63 M-40.88 -86.68 C-40.93 -86.7, -40.86 -86.85, -40.9 -87.05 M-40.86 -86.6 C-40.92 -86.66, -40.91 -86.8, -40.89 -87.02 M-40.95 -86.92 C-40.88 -87.06, -40.9 -87.22, -40.93 -87.43 M-40.94 -86.99 C-40.93 -87.09, -40.93 -87.25, -40.96 -87.38 M-40.94 -87.31 C-41 -87.43, -40.98 -87.48, -40.96 -87.73 M-40.96 -87.39 C-40.92 -87.45, -40.96 -87.61, -40.92 -87.77 M-40.93 -87.76 C-40.92 -87.87, -40.93 -88.01, -40.93 -88.07 M-40.98 -87.73 C-40.94 -87.9, -40.96 -87.98, -40.92 -88.14 M-40.99 -88.22 C-40.97 -88.22, -40.93 -88.36, -40.78 -88.47 M-40.95 -88.14 C-40.93 -88.21, -40.88 -88.31, -40.83 -88.57 M-40.79 -88.57 C-40.76 -88.7, -40.86 -88.67, -40.78 -88.87 M-40.88 -88.53 C-40.86 -88.64, -40.79 -88.81, -40.75 -88.97 M-40.79 -88.98 C-40.7 -89.14, -40.64 -89.15, -40.67 -89.35 M-40.79 -88.97 C-40.71 -89, -40.72 -89.16, -40.65 -89.3 M-40.68 -89.34 C-40.59 -89.48, -40.56 -89.55, -40.49 -89.74 M-40.62 -89.35 C-40.64 -89.45, -40.55 -89.58, -40.48 -89.74 M-40.55 -89.69 C-40.35 -89.81, -40.4 -89.97, -40.35 -90.12 M-40.54 -89.72 C-40.45 -89.8, -40.4 -89.92, -40.34 -90.12 M-40.33 -90.06 C-40.21 -90.27, -40.23 -90.36, -40.11 -90.45 M-40.36 -90.09 C-40.32 -90.18, -40.28 -90.26, -40.15 -90.51 M-40.15 -90.56 C-40 -90.68, -39.94 -90.73, -39.85 -90.9 M-40.11 -90.53 C-40.04 -90.69, -39.96 -90.75, -39.88 -90.84 M-39.94 -90.93 C-39.83 -90.91, -39.87 -91.09, -39.66 -91.17 M-39.88 -90.84 C-39.86 -90.97, -39.79 -91.1, -39.71 -91.25 M-39.61 -91.16 C-39.59 -91.33, -39.58 -91.34, -39.45 -91.48 M-39.67 -91.22 C-39.65 -91.28, -39.57 -91.32, -39.42 -91.52 M-39.46 -91.48 C-39.3 -91.66, -39.24 -91.73, -39.12 -91.84 M-39.44 -91.54 C-39.31 -91.59, -39.26 -91.75, -39.16 -91.82 M-39.09 -91.83 C-39.11 -91.87, -39.03 -92.04, -38.85 -92.11 M-39.16 -91.83 C-39.07 -91.84, -38.98 -91.96, -38.85 -92.1 M-38.92 -92.05 C-38.73 -92.19, -38.65 -92.15, -38.58 -92.39 M-38.89 -92.09 C-38.7 -92.19, -38.66 -92.24, -38.56 -92.28 M-38.51 -92.27 C-38.53 -92.37, -38.37 -92.5, -38.16 -92.58 M-38.52 -92.31 C-38.48 -92.37, -38.37 -92.43, -38.21 -92.54 M-38.29 -92.49 C-38.09 -92.57, -37.9 -92.64, -37.82 -92.64 M-38.24 -92.51 C-38.15 -92.6, -38.08 -92.63, -37.86 -92.71 M-37.81 -92.68 C-37.77 -92.81, -37.67 -92.79, -37.46 -92.93 M-37.9 -92.76 C-37.82 -92.74, -37.72 -92.77, -37.49 -92.91 M-37.48 -92.92 C-37.4 -92.98, -37.43 -92.98, -37.17 -93.02 M-37.5 -92.88 C-37.37 -92.9, -37.27 -93.01, -37.16 -93.05 M-37.2 -93.08 C-36.92 -93.11, -36.9 -93.06, -36.7 -93.18 M-37.12 -93.04 C-37.03 -93.01, -36.94 -93.1, -36.72 -93.16 M-36.77 -93.12 C-36.55 -93.24, -36.39 -93.21, -36.38 -93.18 M-36.75 -93.15 C-36.68 -93.2, -36.52 -93.18, -36.31 -93.2 M-36.4 -93.22 C-36.19 -93.28, -36.05 -93.17, -35.83 -93.29 M-36.38 -93.21 C-36.27 -93.24, -36.17 -93.28, -35.91 -93.29 M-35.96 -93.29 C-35.74 -93.38, -35.71 -93.37, -35.41 -93.24 M-35.95 -93.25 C-35.75 -93.26, -35.6 -93.28, -35.45 -93.31 M-35.55 -93.27 C-35.27 -93.36, -35.22 -93.32, -35.01 -93.41 M-35.46 -93.36 C-35.38 -93.35, -35.23 -93.3, -35.02 -93.36 M-36.5 -92.39 C-16.2 -90.47, 8.22 -89.39, 43.59 -96.42 M-35.59 -92.18 C-8.16 -95.99, 19.45 -92.75, 44.79 -94.14 M46.67 -93.33 C46.67 -93.33, 46.67 -93.33, 46.67 -93.33 M46.67 -93.33 C46.67 -93.33, 46.67 -93.33, 46.67 -93.33 M46.72 -93.38 C46.77 -93.39, 46.9 -93.3, 47.15 -93.33 M46.7 -93.31 C46.76 -93.32, 46.95 -93.29, 47.15 -93.36 M47.2 -93.4 C47.28 -93.38, 47.37 -93.26, 47.6 -93.35 M47.14 -93.32 C47.23 -93.34, 47.3 -93.28, 47.58 -93.3 M47.58 -93.27 C47.78 -93.32, 47.92 -93.24, 48.03 -93.16 M47.58 -93.25 C47.66 -93.29, 47.8 -93.24, 47.99 -93.26 M48.04 -93.26 C48.15 -93.12, 48.32 -93.08, 48.39 -93.17 M48 -93.21 C48.18 -93.21, 48.29 -93.14, 48.39 -93.14 M48.41 -93.2 C48.56 -93.05, 48.63 -92.99, 48.74 -93.03 M48.44 -93.1 C48.51 -93.11, 48.62 -93.1, 48.78 -93 M48.88 -92.99 C48.93 -92.97, 49.18 -92.94, 49.12 -92.93 M48.83 -93.03 C48.99 -92.98, 49.1 -92.89, 49.19 -92.86 M49.16 -92.89 C49.28 -92.81, 49.41 -92.79, 49.55 -92.79 M49.18 -92.87 C49.27 -92.86, 49.37 -92.78, 49.59 -92.72 M49.51 -92.69 C49.63 -92.72, 49.89 -92.61, 49.93 -92.53 M49.58 -92.68 C49.64 -92.69, 49.78 -92.59, 49.86 -92.5 M49.95 -92.5 C49.92 -92.45, 50.1 -92.5, 50.17 -92.28 M49.9 -92.51 C49.93 -92.5, 50.02 -92.41, 50.23 -92.32 M50.27 -92.27 C50.36 -92.22, 50.36 -92.16, 50.58 -92.08 M50.19 -92.33 C50.29 -92.27, 50.39 -92.21, 50.52 -92.07 M50.55 -92.04 C50.61 -92, 50.62 -91.93, 50.75 -91.85 M50.51 -92.05 C50.62 -92.04, 50.65 -91.96, 50.83 -91.85 M50.84 -91.83 C50.87 -91.72, 50.89 -91.7, 51.02 -91.57 M50.81 -91.84 C50.9 -91.71, 50.93 -91.68, 51.05 -91.54 M51.05 -91.59 C51.21 -91.5, 51.21 -91.41, 51.38 -91.19 M51.1 -91.54 C51.19 -91.39, 51.28 -91.32, 51.3 -91.2 M51.28 -91.15 C51.44 -91.09, 51.38 -91.06, 51.64 -90.86 M51.34 -91.19 C51.36 -91.13, 51.42 -91.09, 51.55 -90.87 M51.51 -90.92 C51.6 -90.7, 51.77 -90.66, 51.78 -90.51 M51.57 -90.84 C51.68 -90.74, 51.73 -90.67, 51.8 -90.53 M51.82 -90.5 C51.81 -90.37, 51.89 -90.37, 52.02 -90.06 M51.81 -90.47 C51.8 -90.44, 51.86 -90.3, 52 -90.11 M52.02 -90.04 C51.97 -90.02, 52.15 -89.88, 52.08 -89.69 M52.02 -90.12 C52.06 -89.97, 52.08 -89.88, 52.2 -89.72 M52.23 -89.68 C52.18 -89.68, 52.26 -89.45, 52.34 -89.35 M52.13 -89.73 C52.21 -89.62, 52.19 -89.59, 52.36 -89.3 M52.23 -89.39 C52.28 -89.2, 52.4 -89.17, 52.37 -88.86 M52.29 -89.3 C52.34 -89.23, 52.44 -89.09, 52.4 -88.92 M52.45 -88.9 C52.52 -88.82, 52.51 -88.72, 52.46 -88.47 M52.42 -88.94 C52.43 -88.79, 52.51 -88.68, 52.5 -88.55 M52.52 -88.61 C52.62 -88.34, 52.61 -88.2, 52.65 -88.08 M52.55 -88.53 C52.55 -88.37, 52.58 -88.21, 52.56 -88.13 M52.62 -88.13 C52.55 -88.02, 52.61 -87.85, 52.56 -87.81 M52.61 -88.12 C52.6 -88.08, 52.61 -87.98, 52.58 -87.77 M52.54 -87.84 C52.61 -87.62, 52.63 -87.45, 52.6 -87.42 M52.59 -87.78 C52.6 -87.61, 52.58 -87.45, 52.65 -87.39 M52.61 -87.35 C52.58 -87.36, 52.55 -87.2, 52.64 -87 M52.59 -87.39 C52.59 -87.28, 52.6 -87.17, 52.57 -86.97 M52.64 -86.96 C52.63 -86.91, 52.63 -86.78, 52.61 -86.59 M52.57 -86.99 C52.56 -86.86, 52.56 -86.76, 52.54 -86.59 M52.61 -86.67 C52.46 -86.43, 52.47 -86.32, 52.39 -86.19 M52.56 -86.64 C52.53 -86.49, 52.46 -86.33, 52.44 -86.23 M52.48 -86.19 C52.38 -86.16, 52.48 -86.03, 52.27 -85.86 M52.44 -86.23 C52.42 -86.16, 52.4 -86.03, 52.33 -85.83 M52.39 -85.8 C52.34 -85.8, 52.29 -85.59, 52.25 -85.44 M52.35 -85.81 C52.3 -85.73, 52.24 -85.69, 52.17 -85.47 M52.21 -85.49 C52.1 -85.36, 52.08 -85.25, 52 -85.11 M52.21 -85.45 C52.19 -85.4, 52.09 -85.29, 52.06 -85.12 M52.03 -85.18 C52.04 -85.07, 51.89 -84.86, 51.88 -84.81 M52.06 -85.08 C51.95 -85, 51.95 -84.94, 51.79 -84.73 M51.75 -84.7 C51.85 -84.59, 51.78 -84.47, 51.62 -84.28 M51.82 -84.75 C51.71 -84.62, 51.72 -84.47, 51.63 -84.37 M51.67 -84.32 C51.44 -84.28, 51.47 -84.12, 51.39 -83.98 M51.62 -84.35 C51.56 -84.23, 51.42 -84.14, 51.37 -84.02 M47.45 -86.02 C42.57 -69.24, 27.67 -58.95, 21.02 -40.02 M51.6 -83.55 C38.51 -67.41, 26.57 -50.83, 17.45 -41.54 M21.47 -36.92 C14.19 -24.62, 16.39 -15.61, 16.33 -5.45 M19.09 -40.83 C18.23 -28.68, 18.66 -16.25, 19.18 -6.56 M17.5 -5.83 C17.5 -5.83, 17.5 -5.83, 17.5 -5.83 M17.5 -5.83 C17.5 -5.83, 17.5 -5.83, 17.5 -5.83 M17.55 -5.82 C17.49 -5.51, 17.5 -5.4, 17.36 -5.29 M17.53 -5.79 C17.53 -5.67, 17.49 -5.54, 17.49 -5.28 M17.41 -5.2 C17.54 -5.13, 17.38 -5, 17.29 -4.64 M17.44 -5.18 C17.47 -5.1, 17.46 -4.85, 17.43 -4.6 M17.39 -4.64 C17.37 -4.5, 17.41 -4.3, 17.19 -4.18 M17.39 -4.69 C17.35 -4.43, 17.25 -4.19, 17.28 -4.14 M17.24 -4.12 C17.27 -4.05, 17.1 -3.74, 17.11 -3.56 M17.29 -4.06 C17.25 -3.97, 17.14 -3.71, 17.09 -3.52 M17.1 -3.53 C17.07 -3.42, 16.99 -3.14, 16.81 -2.94 M17.13 -3.5 C17.04 -3.38, 17.01 -3.34, 16.81 -3.04 M16.91 -3.12 C16.83 -2.84, 16.63 -2.74, 16.62 -2.46 M16.86 -2.99 C16.76 -2.92, 16.66 -2.7, 16.61 -2.53 M16.62 -2.51 C16.45 -2.47, 16.32 -2.31, 16.23 -2.04 M16.59 -2.6 C16.47 -2.38, 16.37 -2.29, 16.25 -2.07 M16.24 -2.1 C16.18 -1.96, 16.04 -1.91, 15.74 -1.76 M16.25 -2.15 C16.14 -2.02, 15.99 -1.89, 15.85 -1.72 M15.87 -1.64 C15.77 -1.45, 15.59 -1.37, 15.33 -1.2 M15.82 -1.63 C15.7 -1.61, 15.58 -1.41, 15.39 -1.34 M15.29 -1.36 C15.27 -1.22, 15.22 -1.05, 15 -0.99 M15.45 -1.33 C15.23 -1.23, 15.19 -1.12, 14.91 -0.92 M14.9 -1.01 C14.67 -0.86, 14.72 -0.79, 14.41 -0.69 M14.96 -0.99 C14.77 -0.87, 14.57 -0.8, 14.5 -0.67 M14.37 -0.56 C14.31 -0.56, 14.09 -0.42, 14 -0.42 M14.42 -0.71 C14.38 -0.57, 14.16 -0.51, 14 -0.46 M14 -0.33 C13.88 -0.44, 13.76 -0.23, 13.51 -0.12 M13.94 -0.45 C13.76 -0.32, 13.55 -0.33, 13.36 -0.23 M13.5 -0.35 C13.11 -0.12, 12.93 -0.13, 12.83 -0.22 M13.36 -0.2 C13.24 -0.2, 13.14 -0.16, 12.86 -0.09 M12.79 -0.07 C12.7 -0.12, 12.64 -0.11, 12.36 -0.02 M12.8 -0.09 C12.74 -0.13, 12.49 -0.09, 12.24 0.01 M12.18 0.02 C12.06 -0.05, 11.97 -0.1, 11.56 0.08 M12.26 -0.03 C12.15 0.01, 12.01 0.01, 11.7 -0.05 M9.86 1.75 C6.48 0.92, 2.28 -1.8, -1.67 -1.89 M12.27 -1.05 C7.9 -0.36, 3.31 0.61, -0.11 0.37 M0 0 C0 0, 0 0, 0 0 M0 0 C0 0, 0 0, 0 0" stroke="currentColor" stroke-width="1.8" stroke-linecap="round" stroke-linejoin="round" vector-effect="non-scaling-stroke" fill="none"/></g></g><mask/><g stroke-linecap="round"><g transform="translate(80 81.75) rotate(0 -0.10874792002141476 -19.462023983709514)"><path d="M1.6 1.17 C7.23 -7.58, 16.98 -16.59, 28.37 -35.58 M1.08 1.65 C5.67 -7.7, 14.3 -17.95, 29.55 -37.92 M29.72 -39.54 C14.09 -39.84, -11.1 -37.59, -27.61 -34.6 M30.25 -38.26 C8.35 -36.2, -11.02 -33.83, -27.44 -34.75 M-29 -40.58 C-17.79 -27.5, -13.09 -12.17, -3.08 -0.73 M-30.47 -37.98 C-16.7 -22.54, -5.29 -7.04, -1.93 -1.48 M0 0 C0 0, 0 0, 0 0 M0 0 C0 0, 0 0, 0 0" stroke="currentColor" stroke-width="1.8" stroke-linecap="round" stroke-linejoin="round" vector-effect="non-scaling-stroke" fill="none"/></g></g><mask/><g stroke-linecap="round"><g transform="translate(80 81.75) rotate(0 0 0)"><path d="M0 0 C0 0, 0 0, 0 0 M0 0 C0 0, 0 0, 0 0" stroke="currentColor" stroke-width="1.8" stroke-linecap="round" stroke-linejoin="round" vector-effect="non-scaling-stroke" fill="none"/></g></g><mask/><g stroke-opacity="0" fill-opacity="0" stroke-linecap="round" transform="translate(10 10) rotate(0 70 70)"><path d="M0 0 C49.32 0, 98.65 0, 140 0 M0 0 C31.15 0, 62.29 0, 140 0 M140 0 C140 49.87, 140 99.74, 140 140 M140 0 C140 44.16, 140 88.33, 140 140 M140 140 C109.37 140, 78.74 140, 0 140 M140 140 C105.58 140, 71.16 140, 0 140 M0 140 C0 106.48, 0 72.96, 0 0 M0 140 C0 98.4, 0 56.8, 0 0" stroke="#00000000" stroke-width="2" fill="none"/></g></svg>