<svg xmlns="http://www.w3.org/2000/svg" version="1.1" viewBox="10 10 140 140" width="140" height="140" class="excalidraw-svg" data-color-variable="--icon-color" style="color: var(--icon-color, #000000);" fill="none"><metadata>Derived hand-drawn master. Original file: Knowledge/Assets/Icons/product-inventory-material-symbol.svg. Title: Product inventory · Material Symbol. Source: [inventory_2 · Google Material Symbols](https://github.com/google/material-design-icons/blob/master/symbols/web/inventory_2/materialsymbolsoutlined/inventory_2_24px.svg). Author: Google · Material Symbols. License: [Apache License 2.0](https://www.apache.org/licenses/LICENSE-2.0). Attribution index: Knowledge/Maps/Icon 索引.md.</metadata><!-- svg-source:excalidraw --><metadata/><defs><style class="style-fonts">
      </style></defs><g stroke-linecap="round"><g transform="translate(39.16666666666667 138.33333333333334) rotate(0 40.7151161118231 -60.005569334811085)"><path d="M0 0 C0 0, 0 0, 0 0 M0 0 C0 0, 0 0, 0 0 M0.11 -0.01 C-0.03 0.02, -0.14 0.07, -0.7 -0.01 M0.01 -0.04 C-0.2 0, -0.43 -0.05, -0.64 -0.07 M-0.58 0.04 C-0.83 -0.02, -0.82 0.01, -1.15 -0.03 M-0.6 0 C-0.84 -0.08, -0.93 -0.01, -1.13 -0.09 M-1.14 -0.12 C-1.35 0.01, -1.63 -0.08, -1.84 -0.01 M-1.16 -0.02 C-1.29 -0.08, -1.4 -0.05, -1.8 -0.15 M-1.67 -0.01 C-1.9 -0.08, -2.06 -0.16, -2.43 -0.16 M-1.8 -0.13 C-1.85 -0.11, -2.01 -0.21, -2.35 -0.2 M-2.43 -0.3 C-2.49 -0.16, -2.56 -0.17, -2.78 -0.42 M-2.31 -0.25 C-2.53 -0.21, -2.71 -0.27, -2.91 -0.33 M-2.85 -0.33 C-2.99 -0.27, -3.08 -0.45, -3.39 -0.58 M-2.91 -0.31 C-2.97 -0.33, -3.11 -0.42, -3.4 -0.45 M-3.39 -0.52 C-3.53 -0.58, -3.85 -0.65, -3.97 -0.56 M-3.36 -0.43 C-3.59 -0.56, -3.74 -0.56, -3.9 -0.69 M-3.87 -0.6 C-4.02 -0.65, -4.36 -0.88, -4.36 -0.77 M-3.92 -0.61 C-4.08 -0.74, -4.17 -0.76, -4.5 -0.85 M-4.37 -0.85 C-4.63 -1.02, -4.82 -1.04, -4.91 -1.02 M-4.48 -0.9 C-4.59 -0.96, -4.69 -0.93, -4.95 -1.13 M-4.93 -1.05 C-5.04 -1.22, -5.35 -1.31, -5.58 -1.31 M-4.96 -1.06 C-5.12 -1.21, -5.23 -1.25, -5.48 -1.29 M-5.37 -1.27 C-5.56 -1.44, -5.84 -1.52, -5.87 -1.7 M-5.45 -1.34 C-5.63 -1.39, -5.84 -1.52, -6.02 -1.65 M-5.85 -1.69 C-6.03 -1.65, -6.39 -1.92, -6.41 -1.94 M-5.91 -1.65 C-6.02 -1.71, -6.12 -1.78, -6.4 -1.95 M-6.45 -1.84 C-6.54 -1.98, -6.61 -2.09, -6.84 -2.2 M-6.48 -1.93 C-6.65 -2.11, -6.76 -2.24, -6.95 -2.27 M-6.85 -2.22 C-7.16 -2.49, -7.31 -2.58, -7.44 -2.56 M-6.91 -2.3 C-7.06 -2.41, -7.26 -2.47, -7.39 -2.59 M-7.3 -2.6 C-7.54 -2.85, -7.56 -2.94, -7.89 -3.01 M-7.42 -2.64 C-7.54 -2.74, -7.67 -2.84, -7.81 -3 M-7.8 -3.02 C-8.03 -3.09, -8.14 -3.26, -8.19 -3.38 M-7.84 -3.01 C-7.95 -3.07, -8.05 -3.18, -8.24 -3.46 M-8.13 -3.4 C-8.28 -3.54, -8.58 -3.72, -8.6 -3.83 M-8.22 -3.41 C-8.43 -3.59, -8.48 -3.75, -8.69 -3.88 M-8.72 -3.88 C-8.75 -4.09, -9.02 -4.04, -8.94 -4.3 M-8.62 -3.85 C-8.74 -4.01, -8.86 -4.04, -9.1 -4.36 M-9 -4.23 C-9.22 -4.44, -9.34 -4.53, -9.49 -4.79 M-9.09 -4.25 C-9.17 -4.46, -9.35 -4.66, -9.38 -4.79 M-9.46 -4.83 C-9.45 -4.98, -9.65 -5.16, -9.77 -5.27 M-9.45 -4.79 C-9.44 -4.82, -9.6 -4.99, -9.79 -5.24 M-9.76 -5.18 C-9.85 -5.39, -9.91 -5.47, -10.16 -5.72 M-9.79 -5.26 C-9.84 -5.38, -9.85 -5.53, -10.09 -5.66 M-10.09 -5.79 C-10.12 -5.7, -10.16 -6.01, -10.23 -6.25 M-10 -5.67 C-10.19 -5.84, -10.2 -6.09, -10.34 -6.24 M-10.43 -6.28 C-10.45 -6.41, -10.53 -6.53, -10.55 -6.71 M-10.3 -6.2 C-10.4 -6.35, -10.48 -6.56, -10.56 -6.67 M-10.54 -6.74 C-10.57 -6.96, -10.85 -7.02, -10.82 -7.25 M-10.54 -6.65 C-10.6 -6.86, -10.67 -6.98, -10.79 -7.2 M-10.83 -7.21 C-10.77 -7.47, -10.87 -7.61, -10.99 -7.72 M-10.8 -7.18 C-10.9 -7.35, -10.9 -7.59, -11.02 -7.67 M-10.94 -7.74 C-11.02 -7.95, -11.17 -8.1, -11.23 -8.23 M-11 -7.72 C-11.01 -7.84, -11.1 -8, -11.23 -8.21 M-11.13 -8.27 C-11.13 -8.49, -11.35 -8.68, -11.44 -8.74 M-11.23 -8.26 C-11.23 -8.44, -11.24 -8.58, -11.32 -8.74 M-11.26 -8.9 C-11.45 -9.06, -11.46 -9.26, -11.44 -9.45 M-11.29 -8.84 C-11.32 -8.92, -11.37 -9.16, -11.41 -9.31 M-11.52 -9.36 C-11.52 -9.47, -11.51 -9.68, -11.62 -9.88 M-11.49 -9.38 C-11.43 -9.56, -11.51 -9.74, -11.6 -9.86 M-11.65 -9.96 C-11.65 -10.06, -11.62 -10.12, -11.54 -10.44 M-11.59 -9.88 C-11.61 -10.15, -11.61 -10.3, -11.62 -10.43 M-11.65 -10.57 C-11.68 -10.77, -11.63 -10.75, -11.74 -11.02 M-11.59 -10.49 C-11.61 -10.59, -11.66 -10.81, -11.6 -11.02 M-11.67 -11.15 C-11.66 -11.2, -11.64 -11.4, -11.63 -11.69 M-11.6 -11.06 C-11.61 -11.29, -11.71 -11.39, -11.66 -11.69 M-10.34 -9.56 C-10.58 -28, -16.23 -47.54, -15.48 -74.23 M-9.92 -12.71 C-13.04 -28.43, -14.51 -42.16, -12.98 -75.56 M-11.67 -77.44 C-11.67 -77.44, -11.67 -77.44, -11.67 -77.44 M-11.67 -77.44 C-11.67 -77.44, -11.67 -77.44, -11.67 -77.44 M-11.81 -77.31 C-11.76 -77.6, -12.13 -77.79, -12.26 -77.96 M-11.69 -77.45 C-11.95 -77.54, -12.16 -77.8, -12.27 -77.78 M-12.22 -77.79 C-12.36 -77.84, -12.66 -78.1, -12.89 -78.32 M-12.32 -77.86 C-12.44 -77.95, -12.61 -78.15, -12.97 -78.31 M-12.99 -78.21 C-13.17 -78.43, -13.4 -78.57, -13.35 -78.67 M-12.91 -78.34 C-13.1 -78.37, -13.29 -78.54, -13.49 -78.74 M-13.49 -78.7 C-13.72 -78.98, -13.85 -78.99, -13.96 -79.29 M-13.43 -78.83 C-13.58 -78.95, -13.82 -78.96, -14.1 -79.23 M-14.01 -79.17 C-14.3 -79.45, -14.31 -79.6, -14.49 -79.87 M-14.06 -79.22 C-14.27 -79.37, -14.36 -79.64, -14.57 -79.87 M-14.44 -79.93 C-14.69 -80.02, -14.9 -80.23, -14.99 -80.31 M-14.51 -79.83 C-14.63 -79.92, -14.7 -79.99, -15.06 -80.38 M-15.14 -80.43 C-15.13 -80.48, -15.14 -80.59, -15.45 -81.02 M-14.98 -80.44 C-15.12 -80.46, -15.25 -80.68, -15.54 -80.95 M-15.43 -81.07 C-15.47 -81.09, -15.81 -81.24, -15.79 -81.7 M-15.5 -80.94 C-15.63 -81.26, -15.82 -81.45, -15.87 -81.53 M-15.92 -81.6 C-15.95 -81.78, -15.94 -81.91, -16.37 -82.19 M-15.92 -81.64 C-16.02 -81.79, -16.1 -81.92, -16.27 -82.18 M-16.34 -82.34 C-16.33 -82.42, -16.63 -82.68, -16.49 -83.01 M-16.34 -82.2 C-16.47 -82.48, -16.6 -82.78, -16.52 -82.97 M-16.46 -82.93 C-16.64 -82.94, -16.63 -83.12, -17.02 -83.6 M-16.65 -82.95 C-16.63 -83.13, -16.69 -83.3, -16.9 -83.62 M-16.91 -83.5 C-16.93 -83.93, -17.15 -84.03, -17.08 -84.29 M-16.8 -83.69 C-17.03 -83.86, -17.07 -84.14, -17.08 -84.41 M-17.07 -84.32 C-17.27 -84.61, -17.06 -84.74, -17.28 -85.18 M-17.14 -84.4 C-17.16 -84.5, -17.24 -84.84, -17.31 -85.05 M-17.37 -85.23 C-17.19 -85.36, -17.27 -85.65, -17.31 -86 M-17.27 -85.05 C-17.27 -85.26, -17.26 -85.42, -17.36 -85.8 M-17.51 -85.77 C-17.46 -85.98, -17.53 -86.43, -17.32 -86.76 M-17.44 -85.94 C-17.45 -86.01, -17.39 -86.32, -17.4 -86.6 M-17.58 -86.55 C-17.62 -86.85, -17.51 -87.31, -17.4 -87.64 M-17.43 -86.7 C-17.43 -86.91, -17.48 -87.31, -17.56 -87.58 M-15.44 -88.14 C-16.07 -92.18, -19.72 -99.27, -16.05 -106.71 M-17.67 -88.5 C-18.49 -92.91, -19.53 -99.69, -18.89 -105.06 M-17.5 -105 C-17.5 -105, -17.5 -105, -17.5 -105 M-17.5 -105 C-17.5 -105, -17.5 -105, -17.5 -105 M-17.46 -105.06 C-17.56 -105.16, -17.61 -105.21, -17.39 -105.64 M-17.55 -105.04 C-17.5 -105.17, -17.48 -105.42, -17.52 -105.62 M-17.54 -105.64 C-17.57 -105.9, -17.51 -105.95, -17.53 -106.14 M-17.53 -105.58 C-17.43 -105.73, -17.49 -105.91, -17.43 -106.23 M-17.49 -106.17 C-17.5 -106.33, -17.33 -106.66, -17.36 -106.76 M-17.42 -106.18 C-17.42 -106.35, -17.43 -106.57, -17.34 -106.75 M-17.38 -106.84 C-17.32 -106.96, -17.26 -107.08, -17.28 -107.39 M-17.39 -106.75 C-17.35 -106.93, -17.28 -107.09, -17.34 -107.31 M-17.37 -107.42 C-17.28 -107.41, -17.13 -107.77, -17.09 -107.95 M-17.33 -107.36 C-17.24 -107.5, -17.2 -107.71, -17.16 -107.9 M-17.21 -107.79 C-17.03 -108.08, -17.1 -108.11, -16.96 -108.49 M-17.13 -107.88 C-17.12 -108.02, -17.06 -108.19, -17.07 -108.44 M-17.12 -108.32 C-16.89 -108.47, -16.9 -108.72, -16.86 -108.86 M-17.04 -108.38 C-16.99 -108.57, -16.93 -108.72, -16.82 -108.98 M-16.86 -108.95 C-16.79 -109.05, -16.76 -109.3, -16.61 -109.4 M-16.85 -108.96 C-16.82 -109.05, -16.72 -109.17, -16.67 -109.47 M-16.58 -109.38 C-16.59 -109.49, -16.44 -109.67, -16.46 -109.96 M-16.67 -109.42 C-16.53 -109.7, -16.44 -109.88, -16.37 -110 M-16.35 -109.98 C-16.35 -110.16, -16.32 -110.27, -16.19 -110.45 M-16.47 -110.03 C-16.34 -110.15, -16.28 -110.27, -16.15 -110.5 M-16.15 -110.38 C-15.98 -110.76, -16.03 -110.79, -15.96 -111.07 M-16.16 -110.48 C-16.08 -110.69, -15.89 -110.81, -15.89 -111 M-15.78 -111.03 C-15.77 -111.05, -15.57 -111.28, -15.65 -111.38 M-15.85 -111 C-15.75 -111.09, -15.63 -111.29, -15.63 -111.46 M-15.58 -111.38 C-15.44 -111.49, -15.35 -111.58, -15.19 -111.88 M-15.57 -111.48 C-15.47 -111.52, -15.48 -111.64, -15.24 -111.91 M-15.2 -111.9 C-15.2 -111.97, -14.93 -112.19, -14.87 -112.35 M-15.26 -111.94 C-15.16 -111.97, -15.11 -112.05, -14.83 -112.4 M-14.99 -112.42 C-14.7 -112.54, -14.63 -112.63, -14.51 -112.78 M-14.9 -112.37 C-14.84 -112.44, -14.7 -112.58, -14.46 -112.77 M-14.52 -112.85 C-14.45 -112.98, -14.35 -113.07, -13.98 -113.32 M-14.47 -112.76 C-14.37 -112.92, -14.21 -113.07, -14.06 -113.21 M-14.03 -113.34 C-13.97 -113.33, -13.87 -113.41, -13.55 -113.58 M-14.06 -113.27 C-13.96 -113.31, -13.86 -113.4, -13.69 -113.65 M-13.62 -113.58 C-13.43 -113.65, -13.52 -113.88, -13.27 -113.97 M-13.64 -113.66 C-13.49 -113.73, -13.34 -113.86, -13.14 -113.99 M-13.25 -114.15 C-12.93 -114.17, -12.81 -114.31, -12.78 -114.32 M-13.15 -114.06 C-13.1 -114.18, -12.88 -114.21, -12.79 -114.45 M-12.71 -114.45 C-12.67 -114.42, -12.49 -114.45, -12.35 -114.73 M-12.71 -114.42 C-12.57 -114.57, -12.34 -114.64, -12.24 -114.68 M-12.27 -114.71 C-12.11 -114.83, -11.92 -114.86, -11.84 -115.16 M-12.29 -114.79 C-12.18 -114.8, -12.05 -114.92, -11.78 -115.01 M-11.72 -115.06 C-11.62 -115.19, -11.67 -115.27, -11.41 -115.31 M-11.75 -115.02 C-11.6 -115.12, -11.51 -115.18, -11.34 -115.38 M-11.28 -115.29 C-11 -115.42, -10.9 -115.48, -10.74 -115.61 M-11.26 -115.34 C-11.2 -115.43, -11.01 -115.49, -10.84 -115.54 M-10.84 -115.49 C-10.56 -115.62, -10.44 -115.84, -10.2 -115.74 M-10.76 -115.53 C-10.61 -115.71, -10.42 -115.73, -10.3 -115.78 M-10.25 -115.79 C-10.04 -115.87, -9.92 -115.9, -9.85 -116.01 M-10.33 -115.86 C-10.14 -115.82, -9.95 -115.88, -9.76 -116.04 M-9.82 -115.92 C-9.52 -116.06, -9.54 -116.22, -9.27 -116.19 M-9.81 -115.97 C-9.66 -116.03, -9.49 -116.14, -9.27 -116.18 M-9.3 -116.28 C-9.08 -116.13, -9.03 -116.22, -8.76 -116.44 M-9.26 -116.18 C-9.08 -116.21, -9.05 -116.29, -8.74 -116.37 M-8.66 -116.35 C-8.63 -116.46, -8.32 -116.35, -8.07 -116.5 M-8.7 -116.31 C-8.48 -116.4, -8.3 -116.43, -8.18 -116.46 M-8.11 -116.46 C-8.07 -116.56, -7.69 -116.61, -7.65 -116.45 M-8.13 -116.44 C-7.96 -116.46, -7.79 -116.55, -7.56 -116.56 M-7.58 -116.65 C-7.49 -116.53, -7.29 -116.52, -7.09 -116.63 M-7.6 -116.58 C-7.37 -116.59, -7.15 -116.59, -7.02 -116.64 M-6.95 -116.63 C-6.91 -116.73, -6.57 -116.56, -6.36 -116.73 M-6.99 -116.65 C-6.85 -116.64, -6.58 -116.59, -6.43 -116.6 M-6.42 -116.7 C-6.2 -116.64, -6.13 -116.68, -5.92 -116.64 M-6.43 -116.68 C-6.25 -116.62, -6.09 -116.62, -5.78 -116.7 M-7.15 -119.19 C17.13 -118.97, 39.94 -121.76, 90.44 -119 M-7.68 -117.22 C18.66 -119.09, 43.37 -116.7, 86.36 -116.57 M87.5 -116.67 C87.5 -116.67, 87.5 -116.67, 87.5 -116.67 M87.5 -116.67 C87.5 -116.67, 87.5 -116.67, 87.5 -116.67 M87.5 -116.71 C87.64 -116.66, 88.08 -116.6, 87.99 -116.66 M87.52 -116.68 C87.7 -116.69, 87.93 -116.65, 88.15 -116.61 M88.05 -116.64 C88.3 -116.77, 88.26 -116.7, 88.72 -116.55 M88.11 -116.61 C88.21 -116.69, 88.36 -116.63, 88.69 -116.6 M88.64 -116.5 C88.85 -116.56, 89.21 -116.45, 89.17 -116.48 M88.69 -116.58 C88.9 -116.57, 89.05 -116.57, 89.26 -116.56 M89.21 -116.47 C89.4 -116.43, 89.7 -116.48, 89.89 -116.49 M89.27 -116.53 C89.44 -116.48, 89.62 -116.49, 89.78 -116.49 M89.78 -116.41 C90.04 -116.45, 90.12 -116.38, 90.36 -116.22 M89.79 -116.51 C89.95 -116.41, 90.19 -116.33, 90.41 -116.29 M90.27 -116.35 C90.53 -116.21, 90.65 -116.22, 91 -116.25 M90.37 -116.33 C90.45 -116.23, 90.62 -116.21, 90.95 -116.23 M91 -116.17 C91.04 -116.14, 91.31 -116.06, 91.47 -116.04 M90.87 -116.14 C91.1 -116.12, 91.32 -116.09, 91.45 -116.01 M91.35 -116.09 C91.66 -115.91, 91.65 -115.96, 92 -115.89 M91.44 -116 C91.62 -115.99, 91.71 -115.9, 92 -115.86 M92.03 -115.71 C92.14 -115.65, 92.27 -115.66, 92.56 -115.65 M92.02 -115.83 C92.17 -115.7, 92.41 -115.58, 92.49 -115.55 M92.48 -115.54 C92.57 -115.4, 92.93 -115.45, 93.07 -115.29 M92.53 -115.58 C92.62 -115.57, 92.77 -115.38, 92.98 -115.34 M93.05 -115.23 C93.1 -115.15, 93.32 -115.12, 93.49 -115.13 M93.01 -115.33 C93.08 -115.22, 93.33 -115.17, 93.48 -115 M93.54 -115.08 C93.52 -114.86, 93.81 -114.84, 94.02 -114.71 M93.42 -115.07 C93.64 -114.91, 93.81 -114.88, 93.97 -114.77 M93.86 -114.67 C94.15 -114.54, 94.23 -114.52, 94.5 -114.33 M93.98 -114.75 C94.14 -114.63, 94.27 -114.45, 94.4 -114.45 M94.3 -114.44 C94.52 -114.19, 94.56 -114.28, 94.86 -114.07 M94.38 -114.44 C94.52 -114.23, 94.79 -114.2, 94.82 -114.08 M94.92 -114.04 C94.9 -113.88, 95.14 -113.84, 95.19 -113.66 M94.84 -114.02 C95.05 -113.94, 95.22 -113.79, 95.3 -113.67 M95.27 -113.71 C95.46 -113.46, 95.39 -113.38, 95.73 -113.21 M95.31 -113.69 C95.37 -113.54, 95.45 -113.55, 95.79 -113.22 M95.64 -113.29 C95.94 -113.12, 95.97 -112.97, 96.23 -112.89 M95.8 -113.21 C95.95 -113.06, 96.05 -112.96, 96.15 -112.77 M96.17 -112.73 C96.35 -112.62, 96.43 -112.69, 96.43 -112.29 M96.1 -112.83 C96.22 -112.75, 96.28 -112.56, 96.51 -112.35 M96.57 -112.46 C96.67 -112.3, 96.72 -112.03, 96.87 -111.93 M96.55 -112.36 C96.63 -112.26, 96.72 -112.06, 96.96 -111.95 M96.97 -112.01 C97.06 -111.84, 96.99 -111.61, 97.15 -111.46 M96.94 -111.93 C96.95 -111.82, 97.06 -111.67, 97.27 -111.4 M97.15 -111.34 C97.41 -111.29, 97.39 -111, 97.51 -110.91 M97.19 -111.42 C97.34 -111.32, 97.44 -111.22, 97.55 -110.98 M97.58 -110.86 C97.66 -110.93, 97.75 -110.69, 97.82 -110.4 M97.5 -111.01 C97.64 -110.8, 97.81 -110.57, 97.88 -110.48 M97.78 -110.42 C97.8 -110.3, 97.84 -110.29, 98.13 -110.07 M97.86 -110.48 C97.85 -110.28, 97.95 -110.21, 98.09 -110.01 M97.99 -110.06 C98.19 -109.86, 98.22 -109.61, 98.24 -109.45 M98.11 -109.99 C98.09 -109.8, 98.15 -109.68, 98.36 -109.44 M98.25 -109.46 C98.41 -109.39, 98.5 -109.14, 98.4 -108.97 M98.27 -109.41 C98.32 -109.31, 98.4 -109.21, 98.53 -108.97 M98.52 -108.85 C98.51 -108.86, 98.69 -108.69, 98.66 -108.34 M98.55 -108.92 C98.55 -108.76, 98.63 -108.69, 98.71 -108.45 M98.58 -108.51 C98.79 -108.31, 98.73 -107.96, 98.93 -107.95 M98.71 -108.38 C98.77 -108.18, 98.75 -108.11, 98.79 -107.92 M98.88 -107.9 C98.78 -107.67, 98.89 -107.65, 98.97 -107.42 M98.81 -107.85 C98.79 -107.69, 98.86 -107.56, 98.97 -107.35 M98.87 -107.36 C98.88 -107.26, 98.98 -106.88, 99.13 -106.74 M98.95 -107.35 C98.99 -107.19, 99.02 -107.07, 99.04 -106.78 M99.16 -106.8 C98.97 -106.58, 99.18 -106.41, 99.02 -106.21 M99 -106.72 C99.04 -106.57, 99.09 -106.31, 99.08 -106.14 M99.21 -106.07 C99.18 -106.14, 99.15 -105.96, 99.12 -105.57 M99.1 -106.22 C99.14 -106.06, 99.16 -105.89, 99.18 -105.64 M99.24 -105.69 C99.25 -105.53, 99.12 -105.17, 99.23 -105.07 M99.21 -105.62 C99.14 -105.43, 99.17 -105.33, 99.15 -104.98 M96.53 -101.99 C99.14 -95.78, 96.48 -87.96, 100.06 -84.56 M100.52 -105.11 C97.69 -100.7, 99.61 -94.63, 99.38 -85.89 M99.17 -87.5 C99.17 -87.5, 99.17 -87.5, 99.17 -87.5 M99.17 -87.5 C99.17 -87.5, 99.17 -87.5, 99.17 -87.5 M99.16 -87.42 C99.1 -87.04, 99.21 -86.81, 98.99 -86.57 M99.13 -87.55 C99.21 -87.3, 99.14 -87.05, 99.22 -86.59 M99.08 -86.54 C99.06 -86.31, 99.21 -86.27, 98.91 -85.8 M99.14 -86.65 C99.06 -86.42, 99.16 -86.37, 99.14 -85.8 M98.94 -85.94 C99 -85.58, 99.07 -85.24, 98.98 -85.11 M99.06 -85.88 C99.04 -85.63, 98.97 -85.55, 98.91 -85.11 M98.85 -85.12 C98.86 -84.86, 98.68 -84.66, 98.85 -84.28 M98.96 -85.04 C98.88 -84.73, 98.83 -84.47, 98.84 -84.41 M98.61 -84.49 C98.86 -84.18, 98.71 -84.11, 98.56 -83.61 M98.72 -84.31 C98.71 -84.19, 98.64 -84.06, 98.57 -83.66 M98.51 -83.54 C98.29 -83.37, 98.22 -83.21, 98.14 -82.85 M98.61 -83.69 C98.39 -83.32, 98.26 -83.14, 98.29 -82.88 M98.3 -82.85 C98.29 -82.73, 97.91 -82.54, 98.02 -82.19 M98.3 -82.91 C98.15 -82.72, 98.01 -82.42, 97.91 -82.25 M98 -82.36 C97.96 -81.98, 97.92 -81.94, 97.52 -81.54 M97.9 -82.27 C97.74 -81.93, 97.66 -81.82, 97.59 -81.53 M97.51 -81.5 C97.36 -81.39, 97.3 -81.29, 97.07 -80.84 M97.54 -81.58 C97.47 -81.39, 97.31 -81.2, 97.09 -80.9 M97.05 -81.09 C97.06 -80.66, 96.8 -80.71, 96.67 -80.32 M97.21 -81 C97.01 -80.85, 96.8 -80.54, 96.64 -80.4 M96.81 -80.23 C96.64 -80.38, 96.62 -80.14, 96.28 -79.86 M96.71 -80.34 C96.62 -80.22, 96.44 -80.07, 96.21 -79.81 M96.19 -79.89 C96.11 -79.51, 95.72 -79.6, 95.82 -79.25 M96.27 -79.89 C96 -79.64, 95.76 -79.36, 95.66 -79.33 M95.83 -79.26 C95.64 -79.01, 95.28 -79.09, 95.3 -78.79 M95.66 -79.35 C95.45 -79.1, 95.34 -78.83, 95.09 -78.73 M95.09 -78.74 C94.98 -78.79, 95.02 -78.62, 94.43 -78.32 M95.14 -78.72 C94.98 -78.66, 94.79 -78.41, 94.56 -78.3 M94.62 -78.4 C94.44 -78.28, 94.02 -77.89, 94 -77.8 M94.54 -78.28 C94.39 -78.2, 94.28 -78.12, 93.92 -77.85 M93.89 -77.95 C93.89 -77.64, 93.6 -77.55, 93.41 -77.29 M93.92 -77.82 C93.86 -77.81, 93.59 -77.71, 93.29 -77.38 M96.99 -81.15 C94.06 -53.02, 91.62 -32.55, 91.3 -7.99 M94.43 -75.63 C94.32 -61.51, 91.67 -47.25, 93.13 -13.34 M93.33 -11.67 C93.33 -11.67, 93.33 -11.67, 93.33 -11.67 M93.33 -11.67 C93.33 -11.67, 93.33 -11.67, 93.33 -11.67 M93.29 -11.62 C93.27 -11.49, 93.45 -11.31, 93.27 -11.14 M93.31 -11.67 C93.33 -11.47, 93.29 -11.35, 93.27 -11.12 M93.38 -11.01 C93.39 -10.89, 93.26 -10.64, 93.37 -10.43 M93.27 -11.03 C93.3 -10.95, 93.3 -10.78, 93.32 -10.44 M93.19 -10.51 C93.3 -10.38, 93.19 -10.18, 93.15 -9.85 M93.26 -10.44 C93.28 -10.31, 93.23 -10.07, 93.24 -9.87 M93.12 -10.01 C93.1 -9.64, 93.17 -9.48, 93.1 -9.34 M93.16 -9.87 C93.18 -9.74, 93.18 -9.64, 93.17 -9.38 M93.01 -9.35 C93.08 -9.16, 93.05 -8.93, 92.93 -8.71 M93.16 -9.4 C93.07 -9.21, 93.03 -9.01, 92.98 -8.78 M92.93 -8.87 C93.02 -8.72, 92.85 -8.51, 92.94 -8.32 M93.04 -8.81 C92.96 -8.6, 92.93 -8.45, 92.84 -8.23 M92.91 -8.34 C92.87 -8.15, 92.73 -8.04, 92.71 -7.74 M92.87 -8.3 C92.76 -8.11, 92.74 -7.93, 92.69 -7.72 M92.63 -7.74 C92.66 -7.52, 92.46 -7.29, 92.46 -7.21 M92.72 -7.74 C92.66 -7.54, 92.57 -7.36, 92.44 -7.19 M92.45 -7.16 C92.47 -7.09, 92.29 -6.84, 92.24 -6.79 M92.44 -7.15 C92.36 -7.06, 92.31 -6.82, 92.24 -6.65 M92.22 -6.58 C92.19 -6.57, 92.1 -6.25, 91.89 -6.09 M92.24 -6.64 C92.11 -6.5, 92.09 -6.36, 92.03 -6.22 M92.08 -6.26 C91.88 -5.96, 91.8 -5.83, 91.81 -5.6 M92.01 -6.22 C91.91 -6.1, 91.79 -5.9, 91.69 -5.71 M91.73 -5.66 C91.72 -5.64, 91.54 -5.39, 91.33 -5.27 M91.73 -5.75 C91.68 -5.59, 91.53 -5.42, 91.44 -5.26 M91.45 -5.13 C91.4 -5.18, 91.29 -4.99, 91.13 -4.8 M91.35 -5.25 C91.35 -5.16, 91.21 -5.04, 91.03 -4.77 M91.12 -4.84 C91.01 -4.54, 90.82 -4.51, 90.64 -4.41 M91.1 -4.72 C90.92 -4.63, 90.85 -4.51, 90.69 -4.33 M90.62 -4.23 C90.66 -4.23, 90.46 -4.03, 90.22 -3.8 M90.76 -4.27 C90.62 -4.14, 90.49 -4.06, 90.3 -3.87 M90.39 -3.86 C90.12 -3.65, 90.14 -3.49, 89.99 -3.36 M90.37 -3.81 C90.18 -3.82, 90.19 -3.63, 89.96 -3.47 M90 -3.51 C89.69 -3.33, 89.72 -3.17, 89.45 -2.93 M89.91 -3.4 C89.83 -3.28, 89.69 -3.23, 89.5 -3.02 M89.44 -2.91 C89.18 -2.86, 89.15 -2.62, 89.1 -2.53 M89.45 -3.07 C89.26 -2.89, 89.14 -2.79, 89.01 -2.68 M89.07 -2.57 C88.9 -2.58, 88.71 -2.42, 88.62 -2.24 M88.98 -2.57 C88.88 -2.43, 88.62 -2.36, 88.59 -2.21 M88.52 -2.17 C88.38 -2.1, 88.46 -2.14, 88.04 -1.82 M88.62 -2.23 C88.47 -2.1, 88.35 -2.06, 88.12 -1.98 M88.11 -1.88 C87.95 -1.81, 87.76 -1.66, 87.6 -1.73 M88.08 -1.92 C87.93 -1.78, 87.77 -1.76, 87.66 -1.6 M87.73 -1.72 C87.38 -1.48, 87.34 -1.46, 87.04 -1.39 M87.68 -1.57 C87.54 -1.55, 87.38 -1.42, 87.18 -1.34 M87.12 -1.25 C86.99 -1.35, 86.73 -1.06, 86.56 -1.07 M87.15 -1.38 C87 -1.24, 86.84 -1.18, 86.64 -1.03 M86.55 -1.14 C86.43 -0.97, 86.17 -1, 86.18 -0.9 M86.61 -1.06 C86.5 -1.03, 86.4 -0.96, 86.14 -0.81 M86.18 -0.89 C86.04 -0.91, 86 -0.79, 85.56 -0.63 M86.08 -0.8 C86.06 -0.78, 85.85 -0.73, 85.58 -0.66 M85.7 -0.65 C85.51 -0.61, 85.34 -0.63, 85.1 -0.52 M85.65 -0.63 C85.48 -0.65, 85.29 -0.5, 85.05 -0.52 M85.15 -0.42 C84.9 -0.34, 84.71 -0.3, 84.48 -0.42 M85.11 -0.44 C84.89 -0.45, 84.7 -0.34, 84.53 -0.36 M84.62 -0.38 C84.28 -0.23, 84.29 -0.37, 83.96 -0.16 M84.56 -0.38 C84.36 -0.31, 84.26 -0.28, 84.02 -0.17 M83.95 -0.3 C83.86 -0.26, 83.53 -0.11, 83.36 -0.03 M83.94 -0.22 C83.86 -0.18, 83.61 -0.16, 83.42 -0.08 M83.32 -0.03 C83.19 -0.1, 83.05 0.01, 82.92 -0.02 M83.44 -0.16 C83.19 -0.06, 82.99 -0.01, 82.8 -0.08 M82.73 -0.15 C82.68 -0.01, 82.54 -0.07, 82.26 -0.08 M82.86 0 C82.6 -0.03, 82.48 -0.07, 82.28 -0.05 M82.34 -0.1 C82.12 0.04, 81.78 -0.03, 81.76 -0.03 M82.27 0.04 C82.04 -0.02, 81.94 0.04, 81.68 -0.02 M84.1 0.22 C58.65 -0.83, 44.78 -2.92, -3.22 -1.22 M80.05 -1 C57.66 1.36, 34.49 -0.61, -1.06 -0.01 M0 0 C0 0, 0 0, 0 0 M0 0 C0 0, 0 0, 0 0" stroke="currentColor" stroke-width="1.8" stroke-linecap="round" stroke-linejoin="round" vector-effect="non-scaling-stroke" fill="none"/></g></g><mask/><g stroke-linecap="round"><g transform="translate(39.16666666666667 62.5) rotate(0 40.03004533176621 32.73954454933604)"><path d="M-3.13 1.13 C1.18 20.64, -1.49 44.3, -3.27 68 M-0.36 1.07 C0.83 22.91, -0.79 47.96, 0.88 62.38 M-0.25 67.33 C23.76 66.48, 48.96 59.28, 81.72 64.94 M-1.23 64.02 C30.08 62.33, 58.57 62.57, 79.69 63.35 M83.34 61.3 C82.01 47.78, 83.36 26.99, 82.34 1.21 M82.25 62.53 C79.61 40.71, 82.56 15, 80.35 0.88 M79.33 0.9 C56.12 -1.43, 25.22 -2.24, 3.83 -2.52 M82.74 0.76 C62.53 2.46, 45.24 -1, -0.99 -0.58 M0 0 C0 0, 0 0, 0 0 M0 0 C0 0, 0 0, 0 0" stroke="currentColor" stroke-width="1.8" stroke-linecap="round" stroke-linejoin="round" vector-effect="non-scaling-stroke" fill="none"/></g></g><mask/><g stroke-linecap="round"><g transform="translate(33.333333333333336 50.833333333333336) rotate(0 47.47422493521967 -8.339182292111218)"><path d="M1.13 0.53 C32.68 -0.68, 68.38 -1.81, 97.17 2.68 M1.07 -0.2 C34.85 -1.49, 71.85 1.21, 91.54 -0.29 M96.1 0.41 C96.36 -3.85, 90.06 -11.79, 94.01 -15.17 M93.2 0.12 C91.87 -6.01, 92.08 -11.46, 92.62 -17.52 M90.47 -17.25 C68.8 -15.12, 39.87 -16.04, 1.21 -13.66 M91.7 -19.36 C65.89 -15.87, 36.19 -18.27, 0.88 -16.48 M0.78 -14.79 C-1.62 -12.69, -2.32 -6.02, -2.21 -2.4 M0.67 -17.7 C1.81 -11.16, -1.21 -8.1, -0.5 -0.73 M0 0 C0 0, 0 0, 0 0 M0 0 C0 0, 0 0, 0 0" stroke="currentColor" stroke-width="1.8" stroke-linecap="round" stroke-linejoin="round" vector-effect="non-scaling-stroke" fill="none"/></g></g><mask/><g stroke-linecap="round"><g transform="translate(62.5 91.66666666666667) rotate(0 17.771345070330426 -5.345189912874474)"><path d="M0.26 -0.04 C9.24 1.33, 18.98 1.82, 36.34 1.61 M-0.1 -0.33 C7.46 0.24, 17.19 -1.08, 34.85 0.38 M35.14 1.12 C35.7 -5.56, 35.02 -8.94, 35.78 -11.92 M35.04 -0.47 C34.69 -4.05, 34.5 -7.53, 34.99 -11.71 M35.12 -10.27 C24.69 -11.33, 13.12 -11.31, 1.92 -11.37 M34.07 -10.69 C25.48 -11.13, 14.22 -11.51, 0.51 -12.34 M0.9 -12.24 C0.18 -8.59, 1.05 -4.62, -0.8 -0.08 M-0.07 -11.1 C0.46 -8.24, -0.23 -4.1, -0.24 0.52 M0 0 C0 0, 0 0, 0 0 M0 0 C0 0, 0 0, 0 0" stroke="currentColor" stroke-width="1.8" stroke-linecap="round" stroke-linejoin="round" vector-effect="non-scaling-stroke" fill="none"/></g></g><mask/><g stroke-linecap="round"><g transform="translate(80 94.58333333333334) rotate(0 0 0)"><path d="M0 0 C0 0, 0 0, 0 0 M0 0 C0 0, 0 0, 0 0" stroke="currentColor" stroke-width="1.8" stroke-linecap="round" stroke-linejoin="round" vector-effect="non-scaling-stroke" fill="none"/></g></g><mask/><g stroke-opacity="0" fill-opacity="0" stroke-linecap="round" transform="translate(10 10) rotate(0 70 70)"><path d="M0 0 C34.84 0, 69.67 0, 140 0 M0 0 C46.16 0, 92.32 0, 140 0 M140 0 C140 37.97, 140 75.95, 140 140 M140 0 C140 29.56, 140 59.12, 140 140 M140 140 C97.87 140, 55.75 140, 0 140 M140 140 C88.6 140, 37.19 140, 0 140 M0 140 C0 111.44, 0 82.87, 0 0 M0 140 C0 103.32, 0 66.64, 0 0" stroke="#00000000" stroke-width="2" fill="none"/></g></svg>